<svg xmlns="http://www.w3.org/2000/svg" xmlns:xlink="http://www.w3.org/1999/xlink" viewBox="0 0 354.947 354.946">
  <defs>
    <style>
      .cls-1 {
        opacity: 0.14;
        fill: url(#linear-gradient);
      }

      .cls-2, .cls-3 {
        stroke: none;
      }

      .cls-3 {
        fill: #54b948;
      }

      .cls-4 {
        filter: url(#Path_426);
      }
    </style>
    <linearGradient id="linear-gradient" x2="0" y2="1" gradientUnits="objectBoundingBox">
      <stop offset="0" stop-color="#935bcb"/>
      <stop offset="1" stop-color="#2c0553"/>
      <stop offset="1" stop-color="#feb47b"/>
      <stop offset="1" stop-color="#ffad6e"/>
    </linearGradient>
    <filter id="Path_426" x="0" y="0" width="354.947" height="354.946" filterUnits="userSpaceOnUse">
      <feOffset dy="15" input="SourceAlpha"/>
      <feGaussianBlur stdDeviation="15" result="blur"/>
      <feFlood flood-opacity="0.161"/>
      <feComposite operator="in" in2="blur"/>
      <feComposite in="SourceGraphic"/>
    </filter>
  </defs>
  <g class="cls-4" transform="matrix(1, 0, 0, 1, 0, 0)">
    <g id="Path_426-2" data-name="Path 426" class="cls-1" transform="translate(45 30)">
      <path class="cls-2" d="M 132.4736328125 264.4462890625 C 123.5190658569336 264.4462890625 114.5702667236328 263.544189453125 105.8758010864258 261.7650451660156 C 97.40256500244141 260.0311889648438 89.06803131103516 257.4440002441406 81.10369873046875 254.0753784179688 C 73.28383636474609 250.7678833007813 65.74150085449219 246.6740417480469 58.6862678527832 241.9076385498047 C 51.69793319702148 237.1864166259766 45.12639999389648 231.764404296875 39.15416717529297 225.7922515869141 C 33.18196487426758 219.8200836181641 27.75996589660645 213.2485504150391 23.03873252868652 206.2602386474609 C 18.27229881286621 199.2050170898438 14.17846584320068 191.6627502441406 10.87093257904053 183.8428802490234 C 7.502299308776855 175.8785705566406 4.915132999420166 167.5440826416016 3.181232929229736 159.0708770751953 C 1.40209949016571 150.3764495849609 0.4999994933605194 141.4276733398438 0.4999994933605194 132.47314453125 C 0.4999994933605194 123.5186080932617 1.40209949016571 114.5698471069336 3.181232929229736 105.8754119873047 C 4.915132999420166 97.40221405029297 7.502299308776855 89.06771087646484 10.87093257904053 81.10340881347656 C 14.17846584320068 73.28354644775391 18.27229881286621 65.74127960205078 23.03873252868652 58.68604278564453 C 27.75996589660645 51.69774627685547 33.18196487426758 45.12621307373047 39.15416717529297 39.15404510498047 C 45.12639999389648 33.18187713623047 51.69793319702148 27.75987815856934 58.6862678527832 23.03864479064941 C 65.74150085449219 18.27224540710449 73.28383636474609 14.17841148376465 81.10369873046875 10.87091159820557 C 89.06803131103516 7.502277851104736 97.40256500244141 4.915111064910889 105.8758010864258 3.181244611740112 C 114.5702667236328 1.402111172676086 123.5190658569336 0.5000112056732178 132.4736328125 0.5000112056732178 C 141.4281921386719 0.5000112056732178 150.3769989013672 1.402111172676086 159.0714721679688 3.181244611740112 C 167.5446929931641 4.915111064910889 175.8792266845703 7.502277851104736 183.8435668945313 10.87091159820557 C 191.6634368896484 14.17841148376465 199.2057647705078 18.27224540710449 206.2610015869141 23.03864479064941 C 213.2493286132813 27.75987815856934 219.8208618164063 33.18187713623047 225.7931060791016 39.15404510498047 C 231.7653045654297 45.12621307373047 237.1873016357422 51.69774627685547 241.9085388183594 58.68604278564453 C 246.6749725341797 65.74127960205078 250.768798828125 73.28354644775391 254.0763397216797 81.10340881347656 C 257.4449768066406 89.06771087646484 260.0321350097656 97.40221405029297 261.7660217285156 105.8754119873047 C 263.545166015625 114.5698471069336 264.447265625 123.5186080932617 264.447265625 132.47314453125 C 264.447265625 141.4276733398438 263.545166015625 150.3764495849609 261.7660217285156 159.0708770751953 C 260.0321350097656 167.5440826416016 257.4449768066406 175.8785705566406 254.0763397216797 183.8428802490234 C 250.768798828125 191.6627502441406 246.6749725341797 199.2050170898438 241.9085388183594 206.2602386474609 C 237.1873016357422 213.2485504150391 231.7653045654297 219.8200836181641 225.7931060791016 225.7922515869141 C 219.8208618164063 231.764404296875 213.2493286132813 237.1864166259766 206.2610015869141 241.9076385498047 C 199.2057647705078 246.6740417480469 191.6634368896484 250.7678833007813 183.8435668945313 254.0753784179688 C 175.8792266845703 257.4440002441406 167.5446929931641 260.0311889648438 159.0714721679688 261.7650451660156 C 150.3769989013672 263.544189453125 141.4281921386719 264.4462890625 132.4736328125 264.4462890625 Z"/>
      <path class="cls-3" d="M 132.4736328125 263.9462890625 C 141.3945922851563 263.9462890625 150.3096618652344 263.047607421875 158.9712066650391 261.2752075195313 C 167.4120941162109 259.5479431152344 175.7148590087891 256.9706420898438 183.6488037109375 253.6148834228516 C 191.4389343261719 250.3199462890625 198.9526062011719 246.2416839599609 205.9810943603516 241.4933166503906 C 212.9430694580078 236.7899169921875 219.4898376464844 231.3883819580078 225.4395294189453 225.4386749267578 C 231.3892364501953 219.489013671875 236.7908020019531 212.9422760009766 241.4942321777344 205.9803466796875 C 246.2425689697266 198.9518737792969 250.3208618164063 191.4382171630859 253.6158294677734 183.6481170654297 C 256.9715881347656 175.7142181396484 259.5489196777344 167.4114837646484 261.2761535644531 158.9706420898438 C 263.0485534667969 150.3091125488281 263.947265625 141.3940734863281 263.947265625 132.47314453125 C 263.947265625 123.5522079467773 263.0485534667969 114.6371765136719 261.2761535644531 105.9756469726563 C 259.5489196777344 97.53481292724609 256.9715881347656 89.23207855224609 253.6158294677734 81.29817962646484 C 250.3208618164063 73.50807952880859 246.2425689697266 65.99440765380859 241.4942321777344 58.96594619750977 C 236.7908020019531 52.00401306152344 231.3892364501953 45.45727920532227 225.4395294189453 39.50761032104492 C 219.4898376464844 33.55791091918945 212.9430694580078 28.1563777923584 205.9810943603516 23.45297813415527 C 198.9526062011719 18.70461082458496 191.4389343261719 14.62634468078613 183.6488037109375 11.33141136169434 C 175.7148590087891 7.975644588470459 167.4120941162109 5.39834451675415 158.9712066650391 3.671077966690063 C 150.3096618652344 1.898677825927734 141.3945922851563 1.000011205673218 132.4736328125 1.000011205673218 C 123.5526657104492 1.000011205673218 114.6375961303711 1.898677825927734 105.9760665893555 3.671077966690063 C 97.53516387939453 5.39834451675415 89.23239898681641 7.975644588470459 81.29846954345703 11.33141136169434 C 73.50833129882813 14.62634468078613 65.99466705322266 18.70461082458496 58.96616744995117 23.45297813415527 C 52.00419998168945 28.1563777923584 45.45743179321289 33.55791091918945 39.50773239135742 39.50761032104492 C 33.55803298950195 45.45727920532227 28.15646553039551 52.00401306152344 23.45303344726563 58.96594619750977 C 18.70469856262207 65.99440765380859 14.62639904022217 73.50807952880859 11.3314323425293 81.29817962646484 C 7.975666046142578 89.23207855224609 5.398332595825195 97.53481292724609 3.671099424362183 105.9756469726563 C 1.898699522018433 114.6371765136719 0.999999463558197 123.5522079467773 0.999999463558197 132.47314453125 C 0.999999463558197 141.3940734863281 1.898699522018433 150.3091125488281 3.671099424362183 158.9706420898438 C 5.398332595825195 167.4114837646484 7.975666046142578 175.7142181396484 11.3314323425293 183.6481170654297 C 14.62639904022217 191.4382171630859 18.70469856262207 198.9518737792969 23.45303344726563 205.9803466796875 C 28.15646553039551 212.9422760009766 33.55803298950195 219.489013671875 39.50773239135742 225.4386749267578 C 45.45743179321289 231.3883819580078 52.00419998168945 236.7899169921875 58.96616744995117 241.4933166503906 C 65.99466705322266 246.2416839599609 73.50833129882813 250.3199462890625 81.29846954345703 253.6148834228516 C 89.23239898681641 256.9706420898438 97.53516387939453 259.5479431152344 105.9760665893555 261.2752075195313 C 114.6375961303711 263.047607421875 123.5526657104492 263.9462890625 132.4736328125 263.9462890625 M 132.4736328125 264.9462890625 C 59.31046676635742 264.9462890625 -5.208333391237829e-07 205.6360473632813 -5.208333391237829e-07 132.47314453125 C -5.208333391237829e-07 59.31024551391602 59.31046676635742 1.119791704695672e-05 132.4736328125 1.119791704695672e-05 C 205.6367950439453 1.119791704695672e-05 264.947265625 59.31024551391602 264.947265625 132.47314453125 C 264.947265625 205.6360473632813 205.6367950439453 264.9462890625 132.4736328125 264.9462890625 Z"/>
    </g>
  </g>
</svg>
